<svg xmlns="http://www.w3.org/2000/svg" width="15" height="13.875" viewBox="0 0 15 13.875">
  <defs>
    <style>
      .cls-1 {
        fill: #aea59b;
        fill-rule: evenodd;
      }
    </style>
  </defs>
  <path id="Forma_1" data-name="Forma 1" class="cls-1" d="M109.72,963.082h-0.534v-0.269a0.762,0.762,0,0,0-1.523,0v0.269H99.337v-0.269a0.762,0.762,0,0,0-1.523,0v0.269H97.28A1.265,1.265,0,0,0,96,964.328v10.353a1.265,1.265,0,0,0,1.28,1.247h12.44a1.265,1.265,0,0,0,1.28-1.247V964.328A1.265,1.265,0,0,0,109.72,963.082Zm-1.571-.269a0.276,0.276,0,0,1,.551,0v0.5h0v0.5a0.276,0.276,0,0,1-.551,0v-1.01Zm-9.573-.268a0.272,0.272,0,0,1,.275.268v1.01a0.275,0.275,0,0,1-.551,0v-0.5h0v-0.5A0.272,0.272,0,0,1,98.576,962.545Zm11.144,12.91H97.28a0.785,0.785,0,0,1-.794-0.774v-9.106h1.83a0.237,0.237,0,1,0,0-.473h-1.83v-0.774a0.785,0.785,0,0,1,.794-0.773h0.534v0.268a0.762,0.762,0,0,0,1.523,0v-0.268h8.326v0.268a0.762,0.762,0,0,0,1.523,0v-0.268h0.534a0.785,0.785,0,0,1,.794.773V965.1H109.2a0.237,0.237,0,1,0,0,.473h1.312v9.106A0.785,0.785,0,0,1,109.72,975.455ZM108.165,965.1h-0.518a0.237,0.237,0,1,0,0,.473h0.518A0.237,0.237,0,1,0,108.165,965.1Zm-1.312.236a0.24,0.24,0,0,0-.243-0.236H99.353a0.237,0.237,0,1,0,0,.473h7.257A0.24,0.24,0,0,0,106.853,965.338Zm-0.153,3.8h-1.823a0.185,0.185,0,0,1-.176-0.124l-0.563-1.689h0a0.676,0.676,0,0,0-1.276,0L102.3,969.01a0.185,0.185,0,0,1-.176.124H100.3a0.66,0.66,0,0,0-.638.452,0.636,0.636,0,0,0,.244.731l1.475,1.044a0.179,0.179,0,0,1,.067.2l-0.564,1.689a0.634,0.634,0,0,0,.244.73,0.673,0.673,0,0,0,.788,0l1.475-1.043a0.188,0.188,0,0,1,.217,0l1.475,1.043a0.672,0.672,0,0,0,.789,0,0.633,0.633,0,0,0,.243-0.73l-0.563-1.689a0.176,0.176,0,0,1,.067-0.2l1.475-1.044a0.637,0.637,0,0,0,.244-0.731A0.661,0.661,0,0,0,106.7,969.134Zm0.108,0.8-1.474,1.043a0.643,0.643,0,0,0-.244.731l0.563,1.689a0.173,0.173,0,0,1-.067.2,0.183,0.183,0,0,1-.217,0l-1.475-1.044a0.679,0.679,0,0,0-.788,0l-1.475,1.044a0.183,0.183,0,0,1-.217,0,0.173,0.173,0,0,1-.067-0.2l0.563-1.689a0.643,0.643,0,0,0-.244-0.731l-1.475-1.043a0.174,0.174,0,0,1-.067-0.2,0.18,0.18,0,0,1,.176-0.124h1.823a0.669,0.669,0,0,0,.638-0.452l0.563-1.689a0.187,0.187,0,0,1,.352,0l0.563,1.689a0.669,0.669,0,0,0,.638.452H106.7a0.179,0.179,0,0,1,.176.124A0.175,0.175,0,0,1,106.808,969.934Zm-2.129.26a1.65,1.65,0,0,0-.654,1.187,1.614,1.614,0,0,0,.062.586,0.242,0.242,0,0,0,.234.171,0.257,0.257,0,0,0,.067-0.009,0.236,0.236,0,0,0,.166-0.293,1.17,1.17,0,0,1-.045-0.42,1.184,1.184,0,0,1,.468-0.849,0.233,0.233,0,0,0,.043-0.332A0.247,0.247,0,0,0,104.679,970.194Zm-0.951-.834a0.244,0.244,0,0,0-.311-0.142,0.236,0.236,0,0,0-.146.3,1.646,1.646,0,0,0,.31.518,0.247,0.247,0,0,0,.185.082,0.242,0.242,0,0,0,.158-0.057,0.232,0.232,0,0,0,.026-0.333A1.209,1.209,0,0,1,103.728,969.36Z" transform="translate(-96 -962.063)"/>
</svg>
