<svg xmlns="http://www.w3.org/2000/svg" width="24" height="24" viewBox="0 0 24 24">
  <defs>
    <style>
      .cls-1 {
        fill: #9f9891;
        fill-rule: evenodd;
      }
    </style>
  </defs>
  <path id="calendar" class="cls-1" d="M800.5,2265h-21a1.5,1.5,0,0,1-1.5-1.5v-18a1.5,1.5,0,0,1,1.5-1.5H781v3.75a0.753,0.753,0,0,0,.75.75h4.5a0.753,0.753,0,0,0,.75-0.75V2244h6v3.75a0.753,0.753,0,0,0,.75.75h4.5a0.753,0.753,0,0,0,.75-0.75V2244h1.5a1.5,1.5,0,0,1,1.5,1.5v18A1.5,1.5,0,0,1,800.5,2265Zm0-14.25a0.746,0.746,0,0,0-.75-0.75h-19.5a0.746,0.746,0,0,0-.75.75v12a0.753,0.753,0,0,0,.75.75h19.5a0.753,0.753,0,0,0,.75-0.75v-12Zm-7.022,6.42a11.259,11.259,0,0,0-.463,1.71,8.441,8.441,0,0,0,.037,1.62h-1.6a10.2,10.2,0,0,1,.562-3.24,11.33,11.33,0,0,1,1.7-2.78h-3.725V2253h5.26v1.31a5.247,5.247,0,0,0-1.025,1.26A8.729,8.729,0,0,0,793.478,2257.17Zm-6.484-1.21h-1.851v-1.14a3.109,3.109,0,0,0,.752-0.06,1.975,1.975,0,0,0,.652-0.25,3.1,3.1,0,0,0,.489-0.79,1.652,1.652,0,0,0,.263-0.72h1.188v7.5h-1.493v-4.54Zm9.756-8.96h-1.5a0.753,0.753,0,0,1-.75-0.75v-4.5a0.746,0.746,0,0,1,.75-0.75h1.5a0.746,0.746,0,0,1,.75.75v4.5A0.753,0.753,0,0,1,796.75,2247Zm-12,0h-1.5a0.753,0.753,0,0,1-.75-0.75v-4.5a0.746,0.746,0,0,1,.75-0.75h1.5a0.746,0.746,0,0,1,.75.75v4.5A0.753,0.753,0,0,1,784.75,2247Z" transform="translate(-778 -2241)"/>
</svg>
