<svg xmlns="http://www.w3.org/2000/svg" width="13" height="10" viewBox="0 0 13 10">
  <defs>
    <style>
      .cls-1 {
        fill: #aea59b;
        fill-rule: evenodd;
      }
    </style>
  </defs>
  <path id="Forma_1" data-name="Forma 1" class="cls-1" d="M392.006,560.9a0.99,0.99,0,0,1,.112-0.461,0.8,0.8,0,0,1,.7-0.448h7.15c1.345,0,5.037,3.223,5.037,4.727v0.546c0,1.5-3.692,4.727-5.037,4.727h-7.15a0.8,0.8,0,0,1-.7-0.447,1,1,0,0,1-.01-0.9l1.812-3.649-1.812-3.65A1,1,0,0,1,392.006,560.9Z" transform="translate(-392 -560)"/>
</svg>
