<svg xmlns="http://www.w3.org/2000/svg" width="67.657" height="47.906" viewBox="0 0 67.657 47.906">
  <defs>
    <style>
      .cls-1 {
        fill: #f6f2e8;
        fill-rule: evenodd;
      }
    </style>
  </defs>
  <path id="_" data-name="’’" class="cls-1" d="M813.856,759.223q8.838-8.968,8.839-19.88a17.485,17.485,0,0,0-5.314-12.992,16.666,16.666,0,0,0-11.967-5.224,14.919,14.919,0,0,0-9.931,3.513,9.664,9.664,0,0,0,0,14.148,10.229,10.229,0,0,0,7.051,2.774,14.543,14.543,0,0,0,4.271-.833,9.007,9.007,0,0,1,2.88-.647,3.413,3.413,0,0,1,2.582,1.387,6.834,6.834,0,0,1,1.092,4.254,13.816,13.816,0,0,1-2.582,8.414q-3.675,4.9-13.9,10.541v4.346q11.122-3.884,16.983-9.8h0Zm37.381,0q8.838-8.968,8.839-19.88a17.488,17.488,0,0,0-5.313-12.992,16.667,16.667,0,0,0-11.967-5.224,14.92,14.92,0,0,0-9.932,3.513,9.666,9.666,0,0,0,0,14.148,10.233,10.233,0,0,0,7.052,2.774,14.532,14.532,0,0,0,4.27-.833,9.018,9.018,0,0,1,2.88-.647,3.412,3.412,0,0,1,2.582,1.387,6.834,6.834,0,0,1,1.093,4.254,13.816,13.816,0,0,1-2.583,8.414q-3.675,4.9-13.9,10.541v4.346q11.121-3.884,16.982-9.8h0Z" transform="translate(-792.406 -721.125)"/>
</svg>
