<svg xmlns="http://www.w3.org/2000/svg" width="14.312" height="14" viewBox="0 0 14.312 14">
  <defs>
    <style>
      .cls-1 {
        fill: #aea59b;
        fill-rule: evenodd;
      }
    </style>
  </defs>
  <path id="Forma_1" data-name="Forma 1" class="cls-1" d="M107.011,1021.81c0.367,0.14,1.859.49,2.563,0.66a0.362,0.362,0,0,0,.482-0.34c0.123-.69.517-1.95,0.61-2.38,0.021-.09-0.007-0.14-0.05-0.15a2.391,2.391,0,0,0-.383-0.1,0.131,0.131,0,0,0-.13.05c-0.072.37-.476,1.78-0.476,1.78a7.2,7.2,0,0,0-6.108-3.33,7,7,0,1,0,0,14,7.211,7.211,0,0,0,5.991-3.15c0.039-.05.077-0.11,0.115-0.17a0.156,0.156,0,0,0,0-.2,2.833,2.833,0,0,0-.354-0.16,0.142,0.142,0,0,0-.184.04c-0.032.05-.06,0.1-0.091,0.14a6.584,6.584,0,0,1-5.476,2.89,6.392,6.392,0,1,1,0-12.78,6.583,6.583,0,0,1,5.654,3.16s-1.566-.39-1.991-0.52a0.139,0.139,0,0,0-.13.04,2,2,0,0,0-.1.37C106.945,1021.74,106.958,1021.8,107.011,1021.81Zm-4.454-1.33v5.06s2,0.95,2.984,1.42c0.094,0.04.177,0.09,0.251,0.12,0.189,0.08.292,0.08,0.331,0.02a1.531,1.531,0,0,0,.143-0.28c0.039-.1-0.014-0.17-0.182-0.27-0.083-.04-0.192-0.09-0.311-0.14-0.912-.43-2.6-1.22-2.6-1.22v-4.67c0-.27-0.071-0.27-0.2-0.28H102.7C102.6,1020.24,102.557,1020.34,102.557,1020.48Z" transform="translate(-96.344 -1018)"/>
</svg>
